<svg width="143" height="32" viewBox="0 0 143 32" fill="none" xmlns="http://www.w3.org/2000/svg">
<g clip-path="url(#clip0_4540_4685)">
<path d="M26.1903 6.6976C26.0206 6.0768 25.6149 5.5168 25.0417 5.08693C22.0411 2.83413 18.4714 1.14773 14.588 0.145067C14.2112 0.048 13.8216 0 13.4309 0C13.0402 0 12.6506 0.048 12.2737 0.145067C8.38922 1.14773 4.81961 2.83413 1.81896 5.08693C1.24573 5.5168 0.839029 6.07787 0.670369 6.6976C0.223101 8.33387 0 10.0011 0 11.6672V20.3328C0 22 0.223101 23.6672 0.670369 25.3024C0.839029 25.9232 1.24573 26.4832 1.81896 26.9141C4.81961 29.1659 8.38922 30.8533 12.2737 31.8549C12.6506 31.952 13.0402 32 13.4309 32C13.8216 32 14.2123 31.952 14.588 31.8549C18.4714 30.8533 22.0421 29.1659 25.0428 26.9141C25.616 26.4832 26.0227 25.9232 26.1914 25.3024C26.6386 23.6672 26.8617 22 26.8617 20.3328V11.6672C26.8617 10.0011 26.6386 8.33387 26.1914 6.6976M25.8188 16.5685C25.6672 17.1221 25.3096 17.6235 24.7844 18.0181C23.3113 19.1232 21.6867 20.1003 19.9552 20.9173C18.2249 21.7365 16.3803 22.4 14.4738 22.8907C14.1343 22.9771 13.7853 23.0219 13.4309 23.0219C13.0765 23.0219 12.7263 22.9781 12.388 22.8907C10.4815 22.4 8.63687 21.7355 6.90651 20.9173C5.17508 20.0992 3.55146 19.1232 2.07729 18.0181C1.55103 17.6245 1.19343 17.1221 1.04292 16.5685C0.942573 16.1963 0.942573 15.8048 1.04292 15.4325C1.19343 14.8789 1.55103 14.3776 2.07729 13.9829C3.5504 12.8779 5.17508 11.9008 6.90651 11.0837C8.63687 10.2645 10.4815 9.60107 12.388 9.10933C12.7263 9.02293 13.0765 8.9792 13.4309 8.9792C13.7853 8.9792 14.1354 9.02293 14.4738 9.10933C16.3803 9.60107 18.2249 10.2656 19.9552 11.0837C21.6867 11.9019 23.3113 12.8779 24.7844 13.9829C25.3096 14.3765 25.6672 14.8779 25.8188 15.4325C25.9202 15.8048 25.9202 16.1963 25.8188 16.5685Z" fill="#002233"/>
<path d="M33.8921 8.2272C34.0597 8.05973 34.3052 7.97546 34.6265 7.97546H40.9576C41.5842 7.97546 42.1351 8.01066 42.6101 8.07893C43.084 8.14826 43.5121 8.27413 43.8942 8.4576C44.5667 8.7936 45.0983 9.1104 45.489 9.40906C45.8787 9.70666 46.2352 10.1003 46.5565 10.5899C46.9846 11.2469 47.1991 12.1035 47.1991 13.1573V13.7067C47.1991 14.7765 47.0305 15.5947 46.6953 16.1589C46.2971 16.832 45.7164 17.4581 44.951 18.0384C44.4771 18.4053 43.9497 18.6965 43.369 18.9099L47.3379 24.0224H43.4598C43.2004 24.0224 42.9784 23.9733 42.7947 23.8731C42.6111 23.7739 42.435 23.6181 42.2674 23.4037L39.3073 19.3472H37.4948V24.0235H33.6412V8.98453C33.6412 8.6496 33.7245 8.3968 33.8931 8.22826M41.2448 15.9531C41.4199 15.9381 41.6003 15.8923 41.7839 15.8155C42.0433 15.7088 42.2503 15.5904 42.403 15.4603C42.5567 15.3301 42.7168 15.1808 42.8855 15.0123C43.1299 14.7691 43.2527 14.3936 43.2527 13.8901V13.4315C43.2527 12.912 43.084 12.4843 42.7478 12.1472C42.625 12.0256 42.4841 11.9147 42.324 11.8155C42.1639 11.7163 41.976 11.6203 41.7614 11.5285C41.4711 11.4069 41.0505 11.3451 40.4997 11.3451H37.4937V15.9755H40.4997C40.821 15.9755 41.0687 15.968 41.2448 15.952" fill="#002233"/>
<path d="M49.8432 8.22827C50.0119 8.05973 50.2563 7.97653 50.5776 7.97653H55.488C56.1765 7.97653 56.7081 7.99573 57.0828 8.03307C57.4575 8.07147 57.7745 8.144 58.035 8.25067C58.6466 8.48 59.2348 8.74347 59.8016 9.04107C60.3674 9.33867 60.8723 9.65653 61.3164 9.99253C61.9889 10.4821 62.5237 11.0891 62.9218 11.8155C63.32 12.5419 63.5645 13.3248 63.6563 14.1643C63.7331 14.8224 63.7715 15.4336 63.7715 15.9989C63.7715 16.5643 63.7331 17.1755 63.6563 17.8325C63.5645 18.6731 63.32 19.4571 62.9218 20.1824C62.5237 20.9088 61.9889 21.5232 61.3164 22.0288C60.551 22.5941 59.4963 23.1371 58.1503 23.6555C57.5237 23.9008 56.6366 24.0224 55.4891 24.0224H49.5924V8.98453C49.5924 8.64853 49.6767 8.3968 49.8443 8.22827M56.5427 20.4928C56.9867 20.3253 57.3838 20.1333 57.7361 19.92C58.0873 19.7056 58.4545 19.4379 58.8366 19.1179C59.0971 18.8736 59.3074 18.5984 59.4675 18.2923C59.6287 17.9872 59.7237 17.6661 59.7547 17.3301C59.8006 16.8565 59.824 16.4203 59.824 16.0224C59.824 15.6245 59.8006 15.1979 59.7547 14.7392C59.7237 14.3872 59.6244 14.0437 59.4568 13.7077C59.2882 13.3717 59.0811 13.0965 58.8366 12.8821C58.4556 12.5771 58.0948 12.3243 57.7596 12.1259C57.4223 11.9275 57.0251 11.728 56.5661 11.5296C56.2448 11.4069 55.9086 11.3461 55.5574 11.3461H53.4929V20.6528H55.5574C55.8787 20.6528 56.2075 20.6005 56.5437 20.4928" fill="#002233"/>
<path d="M70.456 22.7883C69.3725 21.9115 68.8313 20.7115 68.8313 19.1861H70.1593C70.3717 19.1861 70.5286 19.232 70.6279 19.3227C70.7272 19.4144 70.8072 19.5819 70.8691 19.8261C70.9908 20.6496 71.4061 21.2864 72.1159 21.7355C72.8258 22.1856 73.8057 22.4107 75.0568 22.4107H75.629C76.9558 22.4107 77.9742 22.1429 78.684 21.6096C79.3939 21.0763 79.7483 20.3744 79.7483 19.5061V19.1403C79.7483 18.4853 79.5231 17.9819 79.0737 17.6309C78.6232 17.28 77.94 17.0357 77.0252 16.8992L73.1802 16.304C71.99 16.1205 71.0399 15.7248 70.3301 15.1147C69.6202 14.5056 69.2658 13.6597 69.2658 12.576V12.1419C69.2658 11.3643 69.4825 10.6517 69.918 10.0043C70.3525 9.3568 71.0079 8.83733 71.8864 8.44907C72.7628 8.0608 73.8111 7.8656 75.0322 7.8656H75.5585C77.5269 7.8656 78.9797 8.28907 79.918 9.13493C80.8553 9.9808 81.325 11.0976 81.325 12.4843H79.9746C79.7611 12.4843 79.6042 12.4384 79.5049 12.3477C79.4057 12.2571 79.3405 12.1184 79.3107 11.936C79.2028 11.2043 78.8559 10.6283 78.2688 10.2091C77.6806 9.78987 76.785 9.5808 75.5799 9.5808H75.0077C73.7876 9.5808 72.8567 9.80587 72.2163 10.2549C71.5758 10.7051 71.2555 11.3109 71.2555 12.0736V12.4384C71.2555 13.0485 71.4498 13.5253 71.8384 13.8677C72.228 14.2112 72.8108 14.4427 73.589 14.5643L77.5483 15.1595C78.8292 15.3579 79.8476 15.7579 80.6034 16.3595C81.3581 16.9621 81.7359 17.8347 81.7359 18.9781V19.4357C81.7359 20.3957 81.4691 21.2267 80.9343 21.9275C80.4005 22.6283 79.6725 23.1669 78.7492 23.5403C77.8258 23.9136 76.7776 24.1003 75.6033 24.1003H75.0536C73.0702 24.1003 71.5363 23.6619 70.4539 22.7851" fill="#002233"/>
<path d="M85.4454 23.0624C84.6064 22.3691 84.1868 21.2139 84.1868 19.5979V8.32428H85.423C85.6525 8.32428 85.8275 8.38508 85.9492 8.50775C86.0709 8.63041 86.1328 8.80535 86.1328 9.03361V11.4123H90.344V13.0816H86.1328V19.5083C86.1328 20.5141 86.3655 21.2427 86.8299 21.6917C87.2953 22.1419 88.0084 22.3659 88.9702 22.3659H89.7025C89.9618 22.3509 90.1561 22.4011 90.2853 22.5152C90.4144 22.6293 90.4806 22.8011 90.4806 23.0293V24.0128C90.0366 24.0736 89.5349 24.1045 88.9702 24.1045C87.4597 24.1045 86.2844 23.7568 85.4465 23.0635" fill="#002233"/>
<path d="M93.7642 23.68C93.0842 23.3984 92.559 22.9984 92.1843 22.48C91.8107 21.9616 91.625 21.3451 91.625 20.6272V20.3307C91.625 19.2629 92.0253 18.4331 92.8259 17.8379C93.6275 17.2437 94.8284 16.9461 96.4307 16.9461H100.161V15.5968C100.161 14.6517 99.9245 13.9659 99.4516 13.5381C98.9787 13.1115 98.2315 12.8981 97.2089 12.8981H96.7509C95.9279 12.8981 95.2746 13.0357 94.7943 13.3099C94.3139 13.584 94.0278 13.9808 93.936 14.4992C93.9051 14.7125 93.8485 14.8544 93.7652 14.9216C93.6809 14.9909 93.525 15.0251 93.2955 15.0251H92.0135C92.0135 14.3392 92.1843 13.7141 92.5291 13.1499C92.8728 12.5856 93.4023 12.1365 94.1196 11.8005C94.837 11.4656 95.7294 11.2971 96.7968 11.2971H97.2089C98.9019 11.2971 100.141 11.6672 100.927 12.4064C101.713 13.1456 102.105 14.2315 102.105 15.6651V23.9883H101.007C100.793 23.9883 100.622 23.9275 100.491 23.8048C100.362 23.6832 100.297 23.5083 100.297 23.2789V22.8224C99.4121 23.264 98.6564 23.5883 98.0319 23.7941C97.4064 24 96.8192 24.1024 96.2695 24.1024H96.0635C95.2095 24.1024 94.442 23.9616 93.7642 23.6789M100.16 21.5648V18.3861H96.5438C95.4913 18.3861 94.7398 18.5568 94.2904 18.9013C93.8399 19.2448 93.6147 19.7205 93.6147 20.3307V20.56C93.6147 21.2 93.8666 21.6917 94.3705 22.0352C94.8733 22.3776 95.5607 22.5493 96.4296 22.5493H96.8192C97.5814 22.5493 98.6959 22.2219 100.16 21.5659" fill="#002233"/>
<path d="M106.225 23.0624C105.386 22.3691 104.966 21.2139 104.966 19.5979V8.32428H106.202C106.432 8.32428 106.607 8.38508 106.729 8.50775C106.85 8.63041 106.912 8.80535 106.912 9.03361V11.4123H111.123V13.0816H106.912V19.5083C106.912 20.5141 107.145 21.2427 107.609 21.6917C108.075 22.1419 108.788 22.3659 109.749 22.3659H110.482C110.741 22.3509 110.935 22.4011 111.065 22.5152C111.194 22.6293 111.26 22.8011 111.26 23.0293V24.0128C110.816 24.0736 110.314 24.1045 109.749 24.1045C108.239 24.1045 107.064 23.7568 106.226 23.0635" fill="#002233"/>
<path d="M113.25 8.85013C113.036 8.6368 112.929 8.30933 112.929 7.86667C112.929 7.3792 113.033 7.02507 113.239 6.8032C113.445 6.5824 113.784 6.47147 114.256 6.47147C114.728 6.47147 115.046 6.57493 115.252 6.7808C115.458 6.98667 115.562 7.32587 115.562 7.79733C115.562 8.2688 115.458 8.6176 115.252 8.8384C115.046 9.0592 114.707 9.17013 114.234 9.17013C113.792 9.17013 113.464 9.06347 113.251 8.85013M113.296 11.4112H114.532C114.761 11.4112 114.935 11.472 115.058 11.5947C115.18 11.7163 115.242 11.8912 115.242 12.1205V23.9893H113.297V11.4123L113.296 11.4112Z" fill="#002233"/>
<path d="M120.401 23.4165C119.523 22.96 118.844 22.304 118.364 21.4496C117.883 20.5963 117.642 19.5744 117.642 18.3861V17.0144C117.642 15.8709 117.887 14.8651 118.375 13.9957C118.862 13.1264 119.546 12.4597 120.423 11.9936C121.301 11.5296 122.319 11.2971 123.478 11.2971H123.936C125.11 11.2971 126.133 11.5221 127.002 11.9723C127.872 12.4213 128.542 13.0773 129.016 13.9381C129.489 14.8 129.726 15.8251 129.726 17.0144V18.3861C129.726 19.5296 129.486 20.5323 129.004 21.3931C128.524 22.2549 127.845 22.9216 126.968 23.3941C126.089 23.8677 125.079 24.1035 123.936 24.1035H123.478C122.304 24.1035 121.277 23.8741 120.401 23.4176M126.706 21.3355C127.393 20.6347 127.736 19.6512 127.736 18.3861V16.9909C127.736 15.7259 127.394 14.7456 126.706 14.0523C126.02 13.3589 125.096 13.0112 123.937 13.0112H123.479C122.305 13.0112 121.37 13.3589 120.675 14.0523C119.981 14.7456 119.634 15.7259 119.634 16.9909V18.3861C119.634 19.6512 119.981 20.6347 120.675 21.3355C121.37 22.0363 122.304 22.3872 123.479 22.3872H123.937C125.096 22.3872 126.02 22.0363 126.706 21.3355Z" fill="#002233"/>
<path d="M132.175 11.4112H133.297C133.525 11.4112 133.7 11.472 133.823 11.5947C133.945 11.7163 134.007 11.8912 134.007 12.1205V12.7371C134.998 12.2496 135.86 11.888 136.592 11.6512C137.324 11.4155 137.942 11.2971 138.445 11.2971H138.606C140.101 11.2971 141.207 11.6512 141.924 12.3595C142.64 13.0688 143 14.1248 143 15.5264V23.9883H141.054V15.8475C141.054 14.8555 140.818 14.1323 140.345 13.6747C139.871 13.2181 139.124 12.9888 138.101 12.9888H137.827C137.338 12.9888 136.809 13.0688 136.237 13.2288C135.664 13.3888 134.958 13.6373 134.12 13.9723V23.9893H132.175V11.4123V11.4112Z" fill="#002233"/>
</g>
<defs>
<clipPath id="clip0_4540_4685">
<rect width="143" height="32" fill="white"/>
</clipPath>
</defs>
</svg>
